<svg version="1.1" xmlns="http://www.w3.org/2000/svg" xmlns:xlink="http://www.w3.org/1999/xlink" width="92.61" height="86.12" viewBox="0,0,92.61,86.12"><g transform="translate(-194.25,-137.547)"><g data-paper-data="{&quot;isPaintingLayer&quot;:true}" fill-rule="nonzero" stroke-linecap="butt" stroke-linejoin="miter" stroke-miterlimit="10" stroke-dasharray="" stroke-dashoffset="0" style="mix-blend-mode: normal"><path d="M283.11,197.947c0,0.76 -0.08,1.51 -0.24,2.25c-0.05,0.33 -0.17,1.03 -0.35,2.11c-0.39,2.34 -1.53,4.5 -3.25,6.14c-2.59,2.48 -5.78,4.11 -9.33,4.8c-0.65,0.35 -1.5,0.8 -2.61,1.41c-0.93,0.5 -1.92,0.86 -2.95,1.08c-0.1,0.03 -0.6,0.14 -1.83,0.51c-1.5,0.76 -3.47,1.64 -6.08,2.7c-0.45,0.19 -0.91,0.34 -1.38,0.46c-1.29,0.34 -2.59,0.51 -3.86,0.51c-4.06,0 -7.75,-1.68 -10.4,-4.74c-0.51,-0.59 -0.95,-1.23 -1.33,-1.91c-0.48,-0.21 -0.94,-0.44 -1.4,-0.7c-0.62,0.22 -1.26,0.43 -1.91,0.6c-0.64,0.16 -1.29,0.27 -1.94,0.32c-0.66,0.05 -1.66,0.15 -2.99,0.3c-2.4,0.34 -4.98,0.79 -7.7,1.35c-1.86,0.69 -4.27,1.46 -7.32,2.35c-0.35,0.1 -0.71,0.18 -1.07,0.25c-1.97,0.36 -4.08,0.34 -6.28,-0.09c-6.6,-1.17 -9.14,-5.48 -10.06,-7.92c-0.43,-1.14 -0.83,-2.73 -0.83,-4.68c0,-1.01 0.11,-2.12 0.38,-3.31c1.18,-5.42 5.75,-7.91 8.04,-9.14c0.99,-0.55 1.94,-1 2.87,-1.38c0.22,-2.88 0.53,-8.6 0.89,-19.92v-1.02c-5.93,-1.02 -10.44,-5.28 -11.65,-11.25c-0.58,-2.75 -0.16,-5.61 1.21,-8.16c2.05,-4 5.9,-6.67 10.64,-7.35c0.29,-0.04 0.59,-0.07 0.89,-0.09c0.85,-0.05 1.75,-0.12 2.68,-0.2c1.04,-0.09 2.73,-0.22 5.07,-0.4c0.16,-0.02 0.33,-0.02 0.49,-0.03c0.03,0 0.06,-0.01 0.09,-0.01c3.5,-0.93 7.23,-0.59 10.7,0.99c1.4,0.63 2.65,1.56 3.67,2.71c1.21,1.35 2.3,3.13 3.91,6.34c0.09,0.19 0.18,0.38 0.26,0.57c0.24,0.55 0.49,1.14 0.77,1.77c0.02,-0.25 0.04,-0.52 0.06,-0.8c0.01,-0.11 0.02,-0.23 0.03,-0.34c0.73,-6.74 5.92,-11.7 13.23,-12.64c0.61,-0.08 1.23,-0.11 1.84,-0.08c1.31,0.05 3.37,0.04 6.03,-0.01h0.22c0.92,0 2.75,-0.04 6.24,-0.23c3.4,-0.33 6.77,0.57 9.6,2.53c3.75,2.59 5.89,6.66 5.89,11.16c0,4.79 -2.56,9.14 -6.84,11.63c-1.84,1.07 -3.8,1.78 -5.84,2.13c0.18,1.31 0.4,2.82 0.66,4.5c0.82,4.61 1.48,8.8 1.96,12.5c5.22,0.91 10.33,4.52 11.05,11.24v0.01c0.05,0.39 0.07,0.79 0.07,1.18z" fill="#ff7b00" stroke="#ffffff" stroke-width="7.5"/><path d="M272.107,197.947c0,-0.058 -0.147,0.792 -0.44,2.551c-1.35,1.291 -3.05,1.994 -5.102,2.111c-0.938,0.47 -2.434,1.262 -4.485,2.375c-0.822,0.176 -2.083,0.527 -3.782,1.056c-1.115,0.646 -3.109,1.555 -5.981,2.727c-1.35,0.352 -2.405,0.088 -3.167,-0.792c-0.235,-1.641 0.674,-3.048 2.727,-4.222c1.7,-0.821 3.4,-1.672 5.102,-2.551c-0.586,-10.028 -1.877,-19.703 -3.87,-29.027c0,0.059 -0.059,0.147 -0.176,0.264c-0.703,6.041 -1.818,14.632 -3.343,25.772c-0.118,0.822 -0.527,2.054 -1.231,3.694c-0.234,0.176 -0.543,0.367 -0.924,0.572c-0.382,0.206 -1.188,0.454 -2.419,0.747c-1.173,0.235 -2.022,-0.352 -2.551,-1.759c-0.703,-2.229 -2.082,-5.6 -4.134,-10.115c-1.29,-2.58 -3.285,-6.274 -5.981,-11.083c-0.88,-1.466 -1.877,-3.431 -2.99,-5.894c-1.584,-3.519 -2.522,-5.57 -2.815,-6.157c-0.118,0.938 -0.234,3.021 -0.352,6.245c-0.059,0.703 -0.059,1.671 0,2.902c0,1.643 0,2.698 0,3.167c0,0.411 -0.059,1.026 -0.176,1.847c-0.176,0.998 -0.264,1.672 -0.264,2.023c-0.06,0.998 -0.176,3.637 -0.352,7.916c-0.06,2.698 -0.06,4.341 0,4.926c0,0.587 0.321,0.939 0.967,1.056c0.176,0 0.528,-0.058 1.056,-0.176c0.528,-0.117 0.908,-0.205 1.144,-0.264c0.996,-0.058 2.111,-0.249 3.343,-0.572c1.231,-0.321 2.052,-0.483 2.463,-0.483c0.88,0 1.671,0.352 2.375,1.056c0.233,0.998 0.233,1.965 0,2.902c-0.88,0.822 -1.994,1.407 -3.343,1.76c-0.763,0.059 -1.936,0.176 -3.519,0.352c-2.933,0.411 -6.069,0.968 -9.412,1.672c-1.642,0.646 -4.076,1.438 -7.3,2.374c-0.646,0.119 -1.408,0.089 -2.287,-0.088c-1.056,-0.176 -1.643,-0.497 -1.76,-0.967c-0.176,-0.469 -0.176,-1.056 0,-1.76c0.058,-0.352 0.909,-0.968 2.551,-1.848c1.056,-0.585 1.979,-0.98 2.771,-1.188c0.791,-0.204 1.567,-0.396 2.33,-0.571c0.586,-0.058 1.496,-0.205 2.728,-0.439c0.233,-0.117 0.409,-0.353 0.527,-0.704c0,-1.465 0.029,-3.371 0.088,-5.718c0.352,-3.576 0.704,-10.965 1.056,-22.166v-4.749c0.058,-2.521 -0.059,-5.131 -0.352,-7.829c-0.235,-0.352 -0.499,-0.497 -0.792,-0.439c-1.643,0.352 -3.93,0.703 -6.86,1.056c-2.229,0.059 -3.519,-0.85 -3.871,-2.728c-0.059,-0.233 0,-0.497 0.177,-0.791c0.409,-0.88 1.231,-1.407 2.463,-1.584c0.937,-0.058 1.92,-0.132 2.946,-0.22c1.025,-0.088 2.683,-0.22 4.97,-0.396c0.469,0 1.201,-0.088 2.199,-0.264c1.172,-0.41 2.403,-0.322 3.694,0.264c0.469,0.527 1.231,1.847 2.287,3.958c1.641,3.812 4.191,9.5 7.652,17.064c0.938,1.701 2.228,4.134 3.87,7.301c1.056,2.111 2.696,5.277 4.926,9.5c0.82,-4.574 2.463,-14.689 4.926,-30.347c0.058,-0.176 0.234,-2.199 0.528,-6.069c0.176,-1.641 1.407,-2.608 3.694,-2.902c1.465,0.059 3.694,0.059 6.685,0c1.583,0 3.958,-0.088 7.125,-0.264c0.88,-0.117 1.7,0.088 2.463,0.615c0.762,0.527 1.144,1.231 1.144,2.111c0,0.879 -0.455,1.583 -1.363,2.11c-0.91,0.528 -1.862,0.822 -2.858,0.88c-0.764,-0.352 -1.672,-0.527 -2.728,-0.527c-2.287,0 -4.516,0.294 -6.685,0.879c-0.294,0.06 -0.411,0.734 -0.352,2.023c0,1.056 0.116,2.61 0.352,4.662c0.116,0.235 0.293,0.646 0.527,1.231c0.234,1.994 0.645,4.926 1.231,8.796c0.997,5.572 1.729,10.41 2.199,14.514c0.704,6.04 1.056,9.147 1.056,9.324c0.352,0.118 1.025,-0.117 2.023,-0.704c1.465,-0.762 2.315,-1.201 2.551,-1.319c0.585,-0.233 1.348,-0.352 2.287,-0.352c1.759,0.003 2.696,0.56 2.814,1.673z" fill="#ffffff" stroke="none" stroke-width="1"/></g></g></svg>